<svg viewBox="0 0 100 120" fill="none" xmlns="http://www.w3.org/2000/svg">
  <!-- NutriBake Official Logo: Golden Chef Hat + Heart Contour with Therapeutic Botanical Leaf -->
  <g stroke="#C88E36" stroke-width="5" stroke-linecap="round" stroke-linejoin="round">
    <!-- Chef Hat Cloud Puffs (Top) -->
    <!-- Left Puff -->
    <path d="M 27 50 C 15 45, 14 26, 26 17 C 35 10, 42 16, 44 20" />
    <!-- Center Top Dome Puff -->
    <path d="M 44 20 C 46 8, 56 8, 58 20" />
    <!-- Right Puff -->
    <path d="M 58 20 C 60 16, 67 10, 76 17 C 88 26, 87 45, 75 50" />
    
    <!-- Heart Contour (Bottom) -->
    <!-- Left Upper Lobe & Inward Center Cleft -->
    <path d="M 27 50 C 33 46, 43 51, 51 60 C 59 51, 69 46, 75 50" />
    <!-- Left Lower Heart Arc to Bottom Tip -->
    <path d="M 27 50 C 19 66, 32 88, 51 106" />
    <!-- Right Lower Heart Arc to Bottom Tip -->
    <path d="M 75 50 C 83 66, 70 88, 51 106" />
  </g>

  <!-- Botanical Green Leaf (Therapeutic Nutrition & Health) -->
  <g>
    <!-- Leaf Body sitting dynamically along right lower curve -->
    <path d="M 51 105 C 50 94, 58 76, 75 66 C 83 72, 85 86, 72 98 C 63 105, 56 106, 51 105 Z" fill="#2E8443" />
    <!-- White Vein through the leaf -->
    <path d="M 53 102 C 61 92, 69 82, 75 70" stroke="#FFFFFF" stroke-width="2.6" stroke-linecap="round" />
  </g>
</svg>
